Coordinates
version=1
nRows=6
nColumns=34
inDegrees=yes

Units are S.I. units (second, meters, Newtons, ...)
If the header above contains a line with 'inDegrees', this indicates whether rotational values are in degrees (yes) or radians (no).

endheader
time	pelvis_tilt	pelvis_list	pelvis_rotation	pelvis_tx	pelvis_ty	pelvis_tz	hip_flexion_r	hip_adduction_r	hip_rotation_r	knee_angle_r	ankle_angle_r	subtalar_angle_r	mtp_angle_r	hip_flexion_l	hip_adduction_l	hip_rotation_l	knee_angle_l	ankle_angle_l	subtalar_angle_l	mtp_angle_l	lumbar_extension	lumbar_bending	lumbar_rotation	arm_flex_r	arm_add_r	arm_rot_r	elbow_flex_r	pro_sup_r	arm_flex_l	arm_add_l	arm_rot_l	elbow_flex_l	pro_sup_l
      3.41666670	    -38.22835045	      2.87847654	      1.79358606	      0.43079755	      0.75456306	     -0.04832681	    104.10882348	    -18.26597161	     -3.94177043	     90.21952308	     17.21102616	    -29.14659752	      0.00000000	    103.07208351	    -13.15592568	     -4.99582982	     90.58727989	     22.16253925	    -14.68451799	      0.00000000	    -24.36235756	     -2.69842331	     -9.81029103	    123.10107217	      1.14341149	     23.15523227	     53.84043114	     79.99067311	    -52.54686886	   -179.07674770	   -145.15736644	     44.32994300	     32.33125724
      3.43333330	    -37.54948446	      3.07193481	      1.62913253	      0.42615339	      0.77843506	     -0.04755391	    101.01102856	    -18.28503524	     -4.71949504	     87.29195249	     17.03543788	    -28.48052325	      0.00000000	    100.06053495	    -13.19034982	     -6.00293431	     88.11963955	     21.95708122	    -14.56121441	      0.00000000	    -23.76986836	     -3.33493252	    -10.38008074	    121.30677580	      1.83108545	     22.34097363	     54.16368364	     79.92315495	    -54.52281374	   -179.25144058	   -145.98068646	     43.60240593	     32.98731765
      3.45000000	    -37.41570724	      2.87406001	      1.74011609	      0.42929109	      0.79856314	     -0.04863561	     98.19622494	    -18.51614365	     -5.76648965	     84.10044404	     16.76240443	    -27.80100288	      0.00000000	     97.63114065	    -12.96567587	     -6.72512682	     85.23445319	     21.52988226	    -14.59527053	      0.00000000	    -22.67980775	     -3.21168705	    -10.98716976	    119.10296696	      2.31485367	     21.07654998	     56.17782597	     79.89242742	    -54.05847227	   -177.95195366	   -143.87983605	     43.54613480	     33.62787114
      3.46666670	    -37.01144544	      2.83246066	      1.41055737	      0.43638197	      0.81293723	     -0.04426779	     95.55197497	    -18.11487410	     -6.65263858	     81.27393178	     16.18083670	    -27.89028432	      0.00000000	     94.80858164	    -13.24623203	     -7.33765261	     82.48470395	     22.13756422	    -13.34035519	      0.00000000	    -21.74975472	     -3.19739750	    -12.07935313	    117.74177768	      4.62271782	     20.04668512	     55.08077926	     80.07525463	    -52.73253907	   -175.36948024	   -139.09455631	     42.27629374	     33.68919517
      3.48333330	    -37.35025098	      2.45463864	      1.70627381	      0.43941297	      0.82220175	     -0.04514681	     93.82109411	    -18.25465131	     -7.69510636	     78.89670264	     15.72861011	    -28.22327803	      0.00000000	     93.56968374	    -12.96053014	     -7.43558852	     80.28327048	     21.90260096	    -13.19190204	      0.00000000	    -20.45620144	     -2.72682863	    -12.08033808	    117.61163526	      4.47953742	     20.98491817	     54.70644515	     80.36010856	    -51.33410949	   -174.65918752	   -135.03787986	     40.42623340	     32.86753565
      3.50000000	    -37.06695034	      2.05577575	      2.02898804	      0.43642345	      0.85265148	     -0.04598389	     90.82734900	    -18.36047509	     -8.93787598	     75.36195988	     14.99269535	    -27.87689711	      0.00000000	     91.29989812	    -12.41349163	     -7.84866398	     77.21640112	     20.16591986	    -13.61584678	      0.00000000	    -20.27658020	     -2.22551688	    -11.68881129	    118.13920839	      4.51920603	     21.37205465	     53.80315707	     80.36269178	    -50.90514350	   -174.36857389	   -133.56699854	     39.97430259	     32.41472766
